/* XPM */
static char *cake[] = {
/* columns rows colors chars-per-pixel */
"32 32 186 2 ",
"   c #4D1911",
".  c #541C15",
"X  c #581E16",
"o  c #6A1E16",
"O  c #5C231B",
"+  c #5C281D",
"@  c #57281D",
"#  c #64231C",
"$  c #6C271F",
"%  c #60291E",
"&  c #72221A",
"*  c #5C2A20",
"=  c #622B21",
"-  c #6B2D23",
";  c #762921",
":  c #6C3226",
">  c #6F3E2D",
",  c #673024",
"<  c #72392B",
"1  c #79362D",
"2  c #734230",
"3  c #7E513D",
"4  c #706132",
"5  c #737B41",
"6  c #82241D",
"7  c #812B24",
"8  c #922B26",
"9  c #83302D",
"0  c #99322D",
"q  c #8C333C",
"w  c #8E393E",
"e  c #853934",
"r  c #9D3336",
"t  c #93363B",
"y  c #993539",
"u  c #95383D",
"i  c #9F3833",
"p  c #AA2C2D",
"a  c #A22C27",
"s  c #B52C2B",
"d  c #BD2E2C",
"f  c #B72826",
"g  c #A8312C",
"h  c #B7312E",
"j  c #A72E30",
"k  c #AA2F30",
"l  c #A33233",
"z  c #AD3233",
"x  c #AF3D37",
"c  c #A63833",
"v  c #B53432",
"b  c #B63636",
"n  c #C22D2C",
"m  c #C12725",
"M  c #C2302F",
"N  c #C02E3C",
"B  c #D62436",
"V  c #DB2D3A",
"C  c #C53433",
"Z  c #CA3534",
"A  c #C63837",
"S  c #CA3837",
"D  c #C33A39",
"F  c #CD3B3A",
"G  c #D23535",
"H  c #D33D3B",
"J  c #D43A3A",
"K  c #E7363C",
"L  c #874639",
"P  c #AD4939",
"I  c #D3403E",
"U  c #D8403E",
"Y  c #8E3D43",
"T  c #923641",
"R  c #923D44",
"E  c #9D3841",
"W  c #BD3F43",
"Q  c #CF3340",
"!  c #D23B43",
"~  c #E63C43",
"^  c #EB3F44",
"/  c #EC3E48",
"(  c #8F4046",
")  c #934146",
"_  c #954B4A",
"`  c #8A5744",
"'  c #9E5554",
"]  c #8A714C",
"[  c #966E53",
"{  c #8F7B53",
"}  c #A9685E",
"|  c #A17D5D",
" . c #AB6D61",
".. c #B07664",
"X. c #B47B78",
"o. c #D44442",
"O. c #DB4543",
"+. c #DC4847",
"@. c #DE4B4A",
"#. c #D4484C",
"$. c #CB5552",
"%. c #E14C4B",
"&. c #E9474A",
"*. c #E5504F",
"=. c #EC4953",
"-. c #E55352",
";. c #E95654",
":. c #E55956",
">. c #EC5856",
",. c #EB5D5B",
"<. c #F05E5D",
"1. c #EF605F",
"2. c #F2615F",
"3. c #D46E63",
"4. c #ED6362",
"5. c #F46564",
"6. c #F46D6B",
"7. c #FB6D6C",
"8. c #F96766",
"9. c #EA736E",
"0. c #F7716F",
"q. c #FA706E",
"w. c #ED6A70",
"e. c #F26970",
"r. c #FB7372",
"t. c #FD7877",
"y. c #FE7C7B",
"u. c #F47875",
"i. c #899355",
"p. c #A88866",
"a. c #B3926E",
"s. c #B78270",
"d. c #B69A74",
"f. c #BEA27A",
"g. c #DB836E",
"h. c #FF807E",
"j. c #BA8782",
"k. c #DA8781",
"l. c #C49792",
"z. c #FE8383",
"x. c #F28D95",
"c. c #F29299",
"v. c #F4999D",
"b. c #C5AD83",
"n. c #CAA482",
"m. c #D4B78F",
"M. c #EDAD96",
"N. c #E8BC92",
"B. c #CCB0A5",
"V. c #D8BEAD",
"C. c #DAC495",
"Z. c #DBCB99",
"A. c #D4C191",
"S. c #DFD19F",
"D. c #EAC69B",
"F. c #DBC3B5",
"G. c #E2D5A4",
"H. c #E9D6A3",
"J. c #E7DAA4",
"K. c #E8DCA6",
"L. c #E9DDAB",
"P. c #E3D6AA",
"I. c #E0CDBA",
"U. c #E9E0A6",
"Y. c #ECE3AB",
"T. c #EEE8AC",
"R. c #F2E8AE",
"E. c #F0E7AB",
"W. c #ECE2B3",
"Q. c #EFE9B1",
"!. c #EEE6BC",
"~. c #F2EAB2",
"^. c #F0E7BE",
"/. c #F3EBBA",
"(. c #EFEBC3",
"). c #F0EAC5",
"_. c #F1ECCB",
"`. c #EFF0C6",
"'. c #EEE5D2",
"]. c #F3EED5",
"[. c #F3EEDA",
"{. c #F4F2D3",
"}. c #F5F1DC",
"|. c #FBFBDE",
" X c #FAFDE4",
".X c #FCFFEA",
/* pixels */
"R R R R R R R R R R R R Y R Y R R R R R R R R R R R R R R R R R ",
"R R R R R R R R R R R T { ] T R R R R R R R R R R R R R R R R R ",
"R R R R R R R R R R R R _ i.` R Y R R R R R R R R R R R R R R R ",
"R R R R R R R R R R R R w _ 4 ` R R R R R R R R R R R R R R R R ",
"R R R R R R R R R R R R R T L 4 E Y Y R R ) ) R R R R R R R R R ",
"R R R R R R R R Y Y q q Y W =.P G N ) R q q t R ) R R R R R R R ",
"R R R R R R R q w ' X.B.g.w.v./ ^ B 3.Z.n.s.' w T R R R R R R R ",
"R R R R R T _ s.F.'..X Xu.c.c.~ ^ V #.!.Y.~.L.m...Y q R R R R R ",
"R R R R T j.'. X|.}.]._.9.c.w.K &.B Q L.!.W.K.Y.Q.C. .w R ) R R ",
"R R Y T l. X}.[.].[.[.{.M.=.*.^ ~ ! g.J.W.(.Y.L.L.K.Y.n.) q R R ",
"R R T _ '.}.].].}.'.[.}._.N.H.D.N.H.Y.W.W.!.!.W.K.K.J.Y.C.} R R ",
"R R T B..X[.[.].}.].[. X].`._.(.(.!.!.W.J.!.Y.K.L.Y.L.G.~.f.q R ",
"Y R 1 ` I..X[. X[.[._.(._.(.!.W.L.L.K.L.U.J.K.J.J.K.K.~.Z.< Y R ",
"R R q ; 1 V. X{.}.{._.(.(.(.W.J.K.J.J.K.J.Y.K.Q.~.R.Y.d.2 O R R ",
"R R R p o - a.A.S.G.P.G.J.Q.Q.T.(./.Q.~.T.~.L.b.p.| ` . . 9 R R ",
"R R Y b =.;   : < < : 2 2 L [ a.b.d.p.a.b.f.L . . . . = 0 z R R ",
"R R Y l 5.7.0 O * O = - = # X X O O   . + O O : + $ O l Z y ( R ",
"R R ( y -.z.7.x 6 0 % : e 1 = + @ , e , % % : % $ d s A d y R R ",
"R R R t #.y.r.8.G 8.$.= O * & x g # @ $ h v % # C Z n S h u R R ",
"R R R Y D t.7.8.G 5.y.4.c g 4.1.U h 8 D S S s A F S C C j Y R R ",
"R R R Y k 0.r.q.O.;.y.;.O.%.t.%.U I U *.I S O.*.+.Z S M r ( R R ",
"R R R ( y ,.y.7.O.%.h.;.Z +.r.%.o.I U %.o.S %.%.O.n A d u ( R R ",
"R R R R t o.z.7.%.H h.<.H +.r.%.+.S +.%.I S ;.O.S d A s u R R R ",
"R R R R w D y.r.>.J y.1.F +.7.+.+.S %.+.I H ,.U M M C p ( R R R ",
"R R R R Y z 0.t.<.G r.4.H O.7.+.O.Z -.@.F O.-.A n C C l Y R R R ",
"R R R R ( l ,.h.2.G 6.7.H o.r.%.o.F -.+.S H o.S n S n r ( R R R ",
"R R R R R t o.h.5.G ,.r.I U t.%.o.H -.F M o.F C d Z f R R R R R ",
"R R R R R R v 7.r.H -.r.o.H 7.+.S Z +.S d o.F C m s u R R R R R ",
"R R R R R R u C ;.H O.4.S C -.o.C S o.C C o.Z d p R R R R R R R ",
"R R R R R R Y T k f Z :.F C :.F d o.o.C n C s y Y R R R R R R R ",
"R R R R R R R R ( R j h d d F C n C d s p y R Y R R R R R R R R ",
"R R R R R R R R R Y Y Y y r r r l r y R ( Y R R R R R R R R R R "
};
