/* XPM */
static char *circle[] = {
/* columns rows colors chars-per-pixel */
"10 10 34 1 ",
"  c black",
". c #121212",
"X c #121212",
"o c #121212",
"O c #141414",
"+ c #141414",
"@ c #191919",
"# c #191919",
"$ c #191919",
"% c #191919",
"& c #1A1A1A",
"* c #1A1A1A",
"= c #1A1A1A",
"- c #494949",
"; c #494949",
": c #494949",
"> c #494949",
", c #4A4A4A",
"< c #4A4A4A",
"1 c #4A4A4A",
"2 c #939393",
"3 c #939393",
"4 c #B2B2B2",
"5 c #B2B2B2",
"6 c #B2B2B2",
"7 c #B2B2B2",
"8 c #B2B2B2",
"9 c #B2B2B2",
"0 c #B2B2B2",
"q c #FBFBFB",
"w c #FBFBFB",
"e c #FCFCFC",
"r c #FCFCFC",
"t c white",
/* pixels */
"tq9:$@-7qt",
"r2X    .2r",
"4O      O5",
",        <",
"&        *",
"&        =",
"<        1",
"5O      +6",
"e3o    X2r",
"tw0>%#;8wt"
};
