/* XPM */
static char *exit[] = {
/* columns rows colors chars-per-pixel */
"32 32 120 2 ",
"   c #0F0F0A",
".  c #13120F",
"X  c #151612",
"o  c #181713",
"O  c #151815",
"+  c #1A1916",
"@  c #1D1C1A",
"#  c #211D1A",
"$  c #2B1E1C",
"%  c #351F1E",
"&  c #1F201D",
"*  c #22221E",
"=  c #36201F",
"-  c #1F2421",
";  c #232422",
":  c #2A2724",
">  c #272A26",
",  c #2A2A26",
"<  c #272728",
"1  c #2B2B2C",
"2  c #342120",
"3  c #3D2423",
"4  c #302F2B",
"5  c #382B28",
"6  c #32302C",
"7  c #2E2F32",
"8  c #302F31",
"9  c #2F3031",
"0  c #333434",
"q  c #3E3532",
"w  c #363834",
"e  c #3B3935",
"r  c #353638",
"t  c #3A3B3C",
"y  c #472727",
"u  c #482727",
"i  c #522A2C",
"p  c #5E2E30",
"a  c #473A37",
"s  c #533636",
"d  c #543937",
"f  c #553939",
"g  c #622F31",
"h  c #6C3235",
"j  c #693B3C",
"k  c #753639",
"l  c #793639",
"z  c #723B3E",
"x  c #7C393D",
"c  c #3C3D41",
"v  c #7C3B40",
"b  c #3E4144",
"n  c #424345",
"m  c #454947",
"M  c #4A4B47",
"N  c #434549",
"B  c #474A49",
"V  c #494B4D",
"C  c #4B504F",
"Z  c #51524F",
"A  c #4B4C51",
"S  c #4F5055",
"D  c #505256",
"F  c #53555B",
"G  c #57585C",
"H  c #595D5E",
"J  c #5C605F",
"K  c #575A61",
"L  c #595B62",
"P  c #5D6363",
"I  c #5F6169",
"U  c #62646C",
"Y  c #696A73",
"T  c #6E7375",
"R  c #727778",
"E  c #737A7C",
"W  c #883A3F",
"Q  c #863C41",
"!  c #8D3C42",
"~  c #923D44",
"^  c #993F46",
"/  c #7B8284",
"(  c #7F8789",
")  c #818484",
"_  c #838A8D",
"`  c #8A8E8D",
"'  c #878E92",
"]  c #8C9396",
"[  c #8F9599",
"{  c #91979A",
"}  c #929A9D",
"|  c #9B9D9C",
" . c #9FA09E",
".. c #A0A19F",
"X. c #969EA2",
"o. c #9AA2A5",
"O. c #9DA6A9",
"+. c #A2A4A3",
"@. c #A0A7AB",
"#. c #A2AAAD",
"$. c #A4ADB1",
"%. c #A7B0B4",
"&. c #A9B2B6",
"*. c #ADB5BA",
"=. c #AFB9BD",
"-. c #B3BABD",
";. c #B5BEC2",
":. c #B9BFC4",
">. c #B6C1C6",
",. c #BEC4C6",
"<. c #BEC6CA",
"1. c #C5CBCE",
"2. c #C5CCD0",
"3. c #C8CED1",
"4. c #CCD1D2",
"5. c #D4D7D7",
"6. c #D7DADB",
"7. c #D9DCDD",
"8. c #DBDFE0",
"9. c #DDE1E2",
/* pixels */
"~ ~ ~ ~ ~ ~ ~ ~ ^ x d e e e e e e e e e e d x ~ ~ ~ ~ ~ ~ ~ ~ ~ ",
"~ ~ ~ ~ ~ ! ^ Q f e w 6 , * o X X o * , 6 w e d W ^ ! ~ ~ ~ ~ ~ ",
"~ ~ ~ ~ ~ ^ z e 0 , # + o + m C Z M * o + # , 0 e k ^ ~ ~ ~ ~ ~ ",
"~ ~ ~ ! ^ j w 4 @ + + + o : +.4.3.9.e . o + + # 4 w j ~ ~ ~ ~ ! ",
"~ ~ ~ ^ j 0 : + + + X ; < * _ [ { 4.t 0 6 X o + o : w j ^ ! ~ ~ ",
"~ ~ ~ v 0 ; o + X 9 t 1 r ; _ -.%.4.e V D w 0 X + o ; w x ~ ! ~ ",
"~ ~ ! a : + + + 1 L A ; r ; _ #.O.3.w N A 7 Y A o + + ; a ! ~ ~ ",
"~ ~ j > o + + 1 1 F N < 0 ; _ #.@.3.w N A & c L F + + + > j ^ ~ ",
"~ ! a + + + @ c - S N < 7 ; ( *.$.1.w N A ; c - U B X + + e ! ~ ",
"~ z - o + < ; r b L N 1 7 * _ [ X.1.e N A ; c c G F + + + ; z ^ ",
"^ d O + + c < 7 c K b 1 7 ; / $.#.,.w N N ; t c K S t ; o O s ^ ",
"! 5 + + @ b 1 7 c L b 1 7 ; ' :.;.3.t N N < c c K A r t X O 5 ~ ",
"Q * + @ 1 G < 0 c K N 7 8 ; H B b _ w N B < c b K S < F @ o * ! ",
"x & O . X +   . X + X . @ X # S F @ . * o . + o @ + . @ . o & x ",
"k + * ` +.o.+.+...X. .+.M ; X.:.1.-.: m +.| | | | }  . .| > O k ",
"k O * { 2.2.3.1.1.<.1.-.< H ;.$.O.<.) , >.;.>.-.>.-.-.,.9.6 . k ",
"k o - ( ' X.] $.o.E *._ + P $.&.#.*.{ * X._ &.X.R *.X.R 5.1 X k ",
"k o ; ' $.O.X.O.O.} @._ & m ] &.%.>.T > O.o.O.o.X.O.O.O.4.0 X k ",
"x + @ V B B A V B B C n & & P _ O.] * > A m B B m B B B J ; + W ",
"! $ o X @ ; X - @ ; + + O X + 1 < + + ; @ @ @ @ ; @ O @ . O $ W ",
"^ 3 o + 9 K ; c r K r r r @ m b B +.e A c 0 N c L n 0 c + O 3 ^ ",
"^ p O + ; N - c 0 F 0 0 0 ; / %.=.9.w A t 8 N c L b ; < + O p ^ ",
"! W @ + @ 0 < b c F 0 r r ; ( X.o.7.w A r 7 c t L t ; + o @ W ^ ",
"! ^ i X + @ < N b I 9 r r ; / %.&.7.w A r 8 t r L b O @ X i ^ ! ",
"~ ~ ! # o + ; 7 1 U 9 r 0 ; ( o.#.8.w A r 7 c c D 8 o O # ! ^ ~ ",
"~ ~ ^ h O + + @ 1 U 7 r r & _ / } 9.w A 0 r 1 < 1 + + O h ^ ! ~ ",
"~ ~ ! ^ i O + + ; N < r 9 ; / ;.*.6.w A w 7 7 + + + X i ^ ! ~ ~ ",
"~ ~ ~ ~ ^ i O + + * & 9 ; ; / ] $.7.r c 7 - @ + + o i ^ ~ ~ ~ ~ ",
"~ ~ ~ ! ! ^ p + O O + & @ ; / R +.8.a @ @ + @ O O p ~ ~ ~ ~ ~ ~ ",
"~ ~ ~ ~ ~ ! ^ l = O O + X < R / E X.r X + o O 2 x ^ ~ ~ ~ ~ ~ ! ",
"~ ~ ~ ~ ~ ~ ! ^ ~ h 2 @ O O ; ; ; - O O @ 3 h ~ ^ ! ~ ~ ~ ~ ~ ~ ",
"~ ~ ~ ~ ~ ~ ~ ! ~ ^ ^ W g y = $ $ = y g x ^ ^ ~ ! ~ ~ ~ ~ ~ ~ ! "
};
