/* XPM */
static char *banana[] = {
/* columns rows colors chars-per-pixel */
"32 32 111 2 ",
"   c #612811",
".  c #692E12",
"X  c #87313A",
"o  c #8B343C",
"O  c #8E393E",
"+  c #804625",
"@  c #864B26",
"#  c #8A5028",
"$  c #965526",
"%  c #93582B",
"&  c #9D5F31",
"*  c #B9783C",
"=  c #C97B3F",
"-  c #8E3740",
";  c #8E3A43",
":  c #923D44",
">  c #954143",
",  c #994542",
"<  c #9C4842",
"1  c #924148",
"2  c #9B4B4F",
"3  c #9F5556",
"4  c #A04C42",
"5  c #A55142",
"6  c #AC5741",
"7  c #AF5942",
"8  c #A0524F",
"9  c #AD5B49",
"0  c #B35D41",
"q  c #A35653",
"w  c #B66042",
"e  c #BA6341",
"r  c #BD6842",
"t  c #AB7542",
"y  c #AB625B",
"u  c #AC6560",
"i  c #AF6B62",
"p  c #B57160",
"a  c #BD7C6B",
"s  c #C36C41",
"d  c #C77142",
"f  c #CA7442",
"g  c #C07E40",
"h  c #CD7A43",
"j  c #D17D43",
"k  c #C07C69",
"l  c #C88644",
"z  c #D68445",
"x  c #D98746",
"c  c #D18B46",
"v  c #D88947",
"b  c #D48F49",
"n  c #DA8D49",
"m  c #DE944B",
"M  c #DF984D",
"N  c #E19A4E",
"B  c #E09650",
"V  c #E49D52",
"C  c #E6A154",
"Z  c #E8A155",
"A  c #EBA957",
"S  c #E7A559",
"D  c #E8A758",
"F  c #E7A95A",
"G  c #E9AA5C",
"H  c #F0AF5A",
"J  c #EFB15C",
"K  c #F3B45E",
"L  c #F5B85F",
"P  c #F8B95E",
"I  c #C89A6D",
"U  c #C28473",
"Y  c #C68974",
"T  c #C78C79",
"R  c #DBA37F",
"E  c #ECAD63",
"W  c #EEB066",
"Q  c #EFB26A",
"!  c #F4B760",
"~  c #F6B962",
"^  c #FCBD65",
"/  c #F3B56C",
"(  c #F5BB6B",
")  c #E3AA7D",
"_  c #F3B671",
"`  c #F5BB72",
"'  c #FAC16E",
"]  c #F9C171",
"[  c #F9C279",
"{  c #FDC97C",
"}  c #D4A086",
"|  c #E3AE87",
" . c #EBB683",
".. c #E5B288",
"X. c #EBBB8E",
"o. c #F2BE86",
"O. c #F2BE8C",
"+. c #E5BF92",
"@. c #EBC28B",
"#. c #FDCB83",
"$. c #FECD8B",
"%. c #EDC29D",
"&. c #FBCD92",
"*. c #F3C998",
"=. c #FFD797",
"-. c #FCD29F",
";. c #FFD898",
":. c #EFC6A0",
">. c #FAD3A2",
",. c #FFDCA3",
"<. c #FCD6A9",
/* pixels */
": : : : : : : : : : : : : : : : : : : : : : : : : : : : : : : : ",
": : : : : : : : : : : : : : : : : : : : : o - : : : : : : : : : ",
": : : : : : : : : : : : : : : : : : : : O U O.S v w > : : : : : ",
": : : : : : : : : : : : : : : : : : : - Y ,.t # % h r : : : : : ",
": : : : : : : : : : : : : : : : : : : : :._ $ @ & m z 0 ; : : : ",
": : : : : : : : : : : : : : : : : : : : %.#.~ A C N n h 4 ; : : ",
": : : : : : : : : : : : : : : : : : : : %.$.~ ~ K C N x 0 ; : : ",
": : : : : : : : : : : : : : : : : : : : %.#.! ~ K J M m s > : : ",
": : : : : : : : : : : : : : : : : : o 3 <.` ( ~ L L C N z < ; : ",
": : : : : : : : : : : : : : : : ; > X Y ,.~ ( ! ~ L A N x 6 ; : ",
": : : : : : : : : : : : : : - - 2 1 > :.#.~ ~ ! K L K N n 0 ; : ",
": : : : : : : : : : : : : X q ) o...) #.( ^ ~ ~ ! L K N B = : : ",
": : : : : : : : : : : : o i *.[ / ` [ / ~ ! ! ! ~ P ~ N m = : : ",
": : : : : : : : : : : o a &._ Q W E W / _ ~ ! ! ~ ~ ~ V m = < : ",
": : : : : : : : : : - Y &.Q E G G G G E / _ ( ! L L P N n f < - ",
": : : : : : : : : - i $./ E G G F G F E G E _ / ! L H B n d 4 : ",
": : : : : : : : : :  .` E E G G F S F G E F E _ _ / A M m s > ; ",
": : : : : : : : : 1 X./ F G G G F E F F F G E G / / V M n r ; : ",
": : : : : > : o o q  .G G E F G F E G F G F F E Z V M N x 5 ; : ",
": : : : - o ; y } -.[ V V F F F F F F F F F F V C M M m d > ; : ",
": : o o q T %.,.=.] ( C N C D D F G F F G G Z V N N N n = , : : ",
": 1 k | >.;.{ ~ ~ ~ L A B V V G F S F S Z B V V N N B B h 4 ; : ",
"O } @.` ' ! ~ ! ~ L ~ ~ V V V Z Z Z Z B B B V N N B B B d % ; : ",
"y +.. * ^ ! ~ ~ ~ K L L H N V Z V V B B V V V M N N V x 9 ; : : ",
"k I   * L ~ L L K L K ~ ~ Z m Z V V N N N N N N N B x s : : : : ",
"9 l + c K P L L ~ P L L L ~ N N V N N N B N N N N z d , : : : : ",
": h N M V A K J L L ! L K K F m N V n N N N B n = = : : : : : : ",
": > h m N M N M N C V N N N N N N N B B N n z d 0 O - : : : : : ",
": : O 7 f n m n B n n B B n x x n j h d f s 0 , - : : : : : : : ",
": : > ; > 5 0 r d d j h f d s = w 5 < : , : ; : : : : : : : : : ",
": : : : ; ; ; : : , , 4 < , : : : - - : : : : : : : : : : : : : ",
": : : : : : : : : : ; ; ; ; : : : : : : : : : : : : : : : : : : "
};
