/* XPM */
static char *new_monster[] = {
/* columns rows colors chars-per-pixel */
"32 32 157 2 ",
"   c #140605",
".  c #2D100F",
"X  c #231311",
"o  c #281412",
"O  c #2C1918",
"+  c #421A18",
"@  c #4F1E1C",
"#  c #52211F",
"$  c #62241F",
"%  c #4F2223",
"&  c #572426",
"*  c #5D2524",
"=  c #5F292A",
"-  c #622623",
";  c #6E2A26",
":  c #652B2B",
">  c #692C2E",
",  c #722D2B",
"<  c #76312E",
"1  c #7A322D",
"2  c #662E30",
"3  c #6E2F32",
"4  c #762F33",
"5  c #7B2E32",
"6  c #693331",
"7  c #613835",
"8  c #6B3836",
"9  c #653739",
"0  c #743234",
"q  c #793435",
"w  c #743C37",
"e  c #7B3A36",
"r  c #76373A",
"t  c #7B3539",
"y  c #743C3C",
"u  c #7A3B3D",
"i  c #7A403A",
"p  c #5D5755",
"a  c #674645",
"s  c #7F4B45",
"d  c #71484A",
"f  c #60504E",
"g  c #615552",
"h  c #6B5957",
"j  c #655C5B",
"k  c #755350",
"l  c #725E5C",
"z  c #7B5A5A",
"x  c #6C6464",
"c  c #656563",
"v  c #736967",
"b  c #726C6A",
"n  c #7E7170",
"m  c #80322D",
"M  c #842F36",
"N  c #833534",
"B  c #883631",
"V  c #823B35",
"C  c #82353A",
"Z  c #8B343A",
"A  c #85393E",
"S  c #8B3A3C",
"D  c #963C36",
"F  c #923A3F",
"G  c #844039",
"H  c #8E443C",
"J  c #9E4137",
"K  c #96413B",
"L  c #9E443D",
"P  c #A0453D",
"I  c #853B40",
"U  c #8C3B41",
"Y  c #923D44",
"T  c #993F45",
"R  c #964046",
"E  c #994146",
"W  c #944B41",
"Q  c #9C4942",
"!  c #9B4249",
"~  c #8B534E",
"^  c #9D564B",
"/  c #9C584F",
"(  c #8D5C5A",
")  c #835B55",
"_  c #A14741",
"`  c #A54B44",
"'  c #A5564A",
"]  c #A9564C",
"[  c #AC594D",
"{  c #BF5446",
"}  c #B6544B",
"|  c #BB544B",
" . c #A35E55",
".. c #AA5B52",
"X. c #B15C52",
"o. c #BC5A51",
"O. c #93625E",
"+. c #AF675E",
"@. c #B56054",
"#. c #B86154",
"$. c #BF6458",
"%. c #946766",
"&. c #976D6B",
"*. c #817D7C",
"=. c #B4736B",
"-. c #BB7D75",
";. c #C25D54",
":. c #C65F58",
">. c #C56156",
",. c #C86256",
"<. c #C76159",
"1. c #CB6559",
"2. c #CD6A5C",
"3. c #D16356",
"4. c #D06758",
"5. c #D46C5D",
"6. c #D86B5D",
"7. c #D6705F",
"8. c #D66F60",
"9. c #D96F60",
"0. c #CC7367",
"q. c #C1766C",
"w. c #D67162",
"e. c #DB7263",
"r. c #D9776A",
"t. c #DE7B6C",
"y. c #C67E74",
"u. c #E27465",
"i. c #E47969",
"p. c #EB7D6D",
"a. c #F07F70",
"s. c #F68374",
"d. c #F58B7D",
"f. c #F98B7D",
"g. c #868483",
"h. c #989391",
"j. c #BE928D",
"k. c #AFB5B3",
"l. c #B6B3B2",
"z. c #A6A7A6",
"x. c #C88E87",
"c. c #D98F85",
"v. c #C89087",
"b. c #DA9B91",
"n. c #E49388",
"m. c #F69487",
"M. c #FC9082",
"N. c #F9988B",
"B. c #C7A19A",
"V. c #E8A49A",
"C. c #F7A194",
"Z. c #FAA398",
"A. c #FFA89C",
"S. c #DCA7A1",
"D. c #DAAAA2",
"F. c #FCB7AC",
"G. c #FFB8AE",
/* pixels */
"Y Y Y Y Y Y Y Y Y Y Y Y Y Y Y R Y Y Y Y Y Y Y Y Y Y Y Y Y Y Y Y ",
"Y Y Y Y Y Y Y Y Y Y Y Y Y Y Y S Y Y Y Y Y Y Y Y Y Y Y Y Y Y Y Y ",
"Y Y Y Y Y Y Y Y Y Y Y Y Y Y C z y Y Y Y Y Y Y Y Y Y Y Y Y Y Y Y ",
"Y Y Y Y Y Y Y Y Y Y Y Y U Y d l.v q Y Y Y Y Y Y Y Y Y Y Y Y U Y ",
"Y Y Y Y Y Y Y Y Y Y Y Y R 5 f v c 9 T Y Y Y Y Y Y Y Y Y Y Y Y Y ",
"Y Y Y Y Y Y Y Y Y Y Y Y 4 ~ -.X...e : U Y Y Y Y Y Y Y Y Y Y Y Y ",
"U Y Y Y Y Y Y Y Y Y U r =.G.m.p.p.e.` * t Y Y Y Y Y Y Y Y Y Y Y ",
"Y Y Y Y Y Y Y Y Y S r t.M.u.6.9.8.8.e.o.: 4 T Y Y Y Y Y Y Y Y Y ",
"Y Y Y Y Y Y Y Y U y V.d.e.e.u.e.e.7.7.7.} * C R Y Y Y Y Y Y Y Y ",
"Y Y Y Y Y Y Y T 4 B.A.u.i.7.5.e.e.7.e.e.1.L * U Y Y Y Y Y Y Y Y ",
"Y Y Y Y Y Y T M &.G.6.^ [ 4.u.u.u.7.1.' [ <.1 > T U Y Y Y Y Y Y ",
"Y Y Y Y Y Y Y r D.f.K y.x.O. .$.#. .+.0.: Q } * U Y Y Y Y Y Y Y ",
"Y Y Y Y Y Y Z ( Z.u.H H s.N.c.-.x.V.f.;.# L ;.< 0 T Y Y Y Y Y Y ",
"Y Y Y Y Y R q =.f.e.1.@ $ J { 6.6.} m @ < ,.<.K = T Y Y Y Y Y Y ",
"Y Y Y Y Y Y t 0.s.w.i.{ a j z 7 + o j w ;.6.:.` = Y Y Y Y Y Y Y ",
"Y Y Y Y Y Y t r.i.5.e.1.O.z.l.c   X g.e ;.e.:.E * U Y Y Y Y Y Y ",
"Y Y Y Y Y Y u n.i.7.e.i.H h.x O o g l D 5.e.>._ * U Y Y Y Y Y Y ",
"Y Y Y Y Y Y e S.i.e.w.e.5.1 n *.b h N <.w.e.;.L * U Y Y Y Y Y Y ",
"Y Y Y Y Y Y 4 j.d.5.w.w.e.5.P B V L 5.e.e.5.;.B - R U Y Y Y Y Y ",
"Y Y Y Y Y T Z %.C.4.e.u.e.7.i.e.e.i.e.e.e.2.} ; 0 R Y Y Y Y Y Y ",
"Y Y Y Y Y Y Y y b.u.5.w.>.e.6.e.9.e.2.2.e.<.` * U Y Y Y Y Y Y Y ",
"Y Y Y Y Y Y E 4 ~ s.7.@.g #.e.e.e.6.) k ;.>.< % R Y Y Y Y Y Y Y ",
"Y Y Y Y Y Y R I i [ s.2.W e G G G V e ` ;.K : 0 U Y Y Y Y Y Y Y ",
"Y Y Y Y Y U R A w & H 5.i.5.1.<.1.1.2.<.L & w w Y Y Y Y Y Y Y Y ",
"Y Y Y Y Y Y Y I = T 2 * E o.<.5.1.;.P , & U C 2 Y Y Y Y Y Y Y Y ",
"Y Y Y Y Y Y Y Y T U T I * * < 1 < - # 0 Y Y Y Y Y Y Y Y Y Y Y Y ",
"Y Y Y Y Y Y Y Y Y Y U T I / * 0 : ~ 0 Y Y Y Y U Y Y Y Y Y Y Y Y ",
"Y Y Y Y Y Y Y Y Y Y Y Y U 6 q ! Y w 0 Y Y Y Y Y Y Y Y Y Y Y Y Y ",
"Y Y Y Y Y Y Y Y Y Y Y Y Y U U Y Y S Y Y Y Y Y Y Y Y Y Y Y Y Y Y ",
"Y Y Y Y Y Y Y Y Y Y Y Y Y Y Y Y Y Y Y Y Y Y Y Y Y Y Y Y Y Y Y Y ",
"Y Y Y Y Y Y Y Y Y Y Y Y Y Y Y Y Y Y Y Y Y Y Y Y Y Y Y Y Y Y Y Y ",
"Y Y Y Y Y Y Y Y Y Y Y Y Y Y Y Y Y Y Y Y Y Y Y Y Y Y Y Y Y Y Y Y "
};
